0
SECTION
2
HEADER
9
$INSUNITS
70
4
9
$ACADVER
1
AC1014
9
$HANDSEED
5
FFFF
0
ENDSEC
0
SECTION
2
TABLES
0
TABLE
2
VPORT
5
8
100
AcDbSymbolTable
0
ENDTAB
0
TABLE
2
LTYPE
5
5
100
AcDbSymbolTable
0
LTYPE
5
14
100
AcDbSymbolTableRecord
100
AcDbLinetypeTableRecord
2
BYBLOCK
70
0
0
LTYPE
5
15
100
AcDbSymbolTableRecord
100
AcDbLinetypeTableRecord
2
BYLAYER
70
0
0
ENDTAB
0
TABLE
2
LAYER
5
2
100
AcDbSymbolTable
70
2
0
LAYER
5
50
100
AcDbSymbolTableRecord
100
AcDbLayerTableRecord
2
0
70
0
6
CONTINUOUS
0
ENDTAB
0
TABLE
2
STYLE
5
3
100
AcDbSymbolTable
70
1
0
STYLE
5
11
100
AcDbSymbolTableRecord
100
AcDbTextStyleTableRecord
2
STANDARD
70
0
0
ENDTAB
0
TABLE
2
VIEW
5
6
100
AcDbSymbolTable
70
0
0
ENDTAB
0
TABLE
2
UCS
5
7
100
AcDbSymbolTable
70
0
0
ENDTAB
0
TABLE
2
APPID
5
9
100
AcDbSymbolTable
70
2
0
APPID
5
12
100
AcDbSymbolTableRecord
100
AcDbRegAppTableRecord
2
ACAD
70
0
0
ENDTAB
0
TABLE
2
DIMSTYLE
5
A
100
AcDbSymbolTable
70
1
0
ENDTAB
0
TABLE
2
BLOCK_RECORD
5
1
100
AcDbSymbolTable
70
1
0
BLOCK_RECORD
5
1F
100
AcDbSymbolTableRecord
100
AcDbBlockTableRecord
2
*MODEL_SPACE
0
BLOCK_RECORD
5
1B
100
AcDbSymbolTableRecord
100
AcDbBlockTableRecord
2
*PAPER_SPACE
0
ENDTAB
0
ENDSEC
0
SECTION
2
BLOCKS
0
BLOCK
5
20
100
AcDbEntity
100
AcDbBlockBegin
2
*MODEL_SPACE
0
ENDBLK
5
21
100
AcDbEntity
100
AcDbBlockEnd
0
BLOCK
5
1C
100
AcDbEntity
100
AcDbBlockBegin
2
*PAPER_SPACE
0
ENDBLK
5
1D
100
AcDbEntity
100
AcDbBlockEnd
0
ENDSEC
0
SECTION
2
ENTITIES
0
LWPOLYLINE
5
100
100
AcDbEntity
8
0
100
AcDbPolyline
90
4
70
1
43
0.0
10
-175
20
-107.5
10
180
20
-107.50000000000026
10
180.00000000000006
20
107.49999999999974
10
-175
20
107.5
0
LINE
5
101
100
AcDbEntity
8
0
100
AcDbLine
10
-150
20
95
30
0
11
-150
21
-97.499999999999986
31
0
0
LINE
5
102
100
AcDbEntity
8
0
100
AcDbLine
10
-152.50000000000006
20
-100.00000000000001
30
0
11
-157.49999999999997
21
-100
31
0
0
LINE
5
103
100
AcDbEntity
8
0
100
AcDbLine
10
-160
20
-97.499999999999986
30
0
11
-160
21
95
31
0
0
LINE
5
104
100
AcDbEntity
8
0
100
AcDbLine
10
-150
20
95
30
0
11
-150
21
97.499999999999986
31
0
0
LINE
5
105
100
AcDbEntity
8
0
100
AcDbLine
10
-152.50000000000006
20
100.00000000000001
30
0
11
-157.49999999999997
21
100
31
0
0
LINE
5
106
100
AcDbEntity
8
0
100
AcDbLine
10
-160
20
97.499999999999986
30
0
11
-160
21
95
31
0
0
ARC
5
107
100
AcDbEntity
8
0
100
AcDbCircle
10
-157.49999999999997
20
97.499999999999986
30
0
40
2.5000000000000178
210
0
220
-0
230
1
100
AcDbArc
50
90
51
180
0
ARC
5
108
100
AcDbEntity
8
0
100
AcDbCircle
10
-152.50000000000003
20
97.499999999999986
30
0
40
2.5000000000000178
210
0
220
0
230
1
100
AcDbArc
50
0
51
90.000000000000654
0
ARC
5
109
100
AcDbEntity
8
0
100
AcDbCircle
10
-152.50000000000003
20
-97.499999999999986
30
0
40
2.5000000000000355
210
0
220
0
230
1
100
AcDbArc
50
-90.000000000000654
51
0
0
ARC
5
110
100
AcDbEntity
8
0
100
AcDbCircle
10
-157.49999999999997
20
-97.499999999999986
30
0
40
2.5000000000000178
210
0
220
-0
230
1
100
AcDbArc
50
180
51
270
0
ARC
5
111
100
AcDbEntity
8
0
100
AcDbCircle
10
-117.50000000000001
20
97.499999999999986
30
0
40
2.5000000000000178
210
0
220
0
230
1
100
AcDbArc
50
0
51
90.000000000000981
0
LINE
5
112
100
AcDbEntity
8
0
100
AcDbLine
10
-115
20
95
30
0
11
-115
21
-97.499999999999986
31
0
0
LINE
5
113
100
AcDbEntity
8
0
100
AcDbLine
10
-115
20
95
30
0
11
-115
21
97.499999999999986
31
0
0
LINE
5
114
100
AcDbEntity
8
0
100
AcDbLine
10
-125
20
-97.499999999999986
30
0
11
-125
21
95
31
0
0
LINE
5
115
100
AcDbEntity
8
0
100
AcDbLine
10
-117.50000000000006
20
100.00000000000001
30
0
11
-122.49999999999999
21
100
31
0
0
LINE
5
116
100
AcDbEntity
8
0
100
AcDbLine
10
-125
20
97.499999999999986
30
0
11
-125
21
95
31
0
0
ARC
5
117
100
AcDbEntity
8
0
100
AcDbCircle
10
-122.49999999999999
20
97.499999999999986
30
0
40
2.5000000000000178
210
0
220
-0
230
1
100
AcDbArc
50
90
51
180
0
ARC
5
118
100
AcDbEntity
8
0
100
AcDbCircle
10
-117.50000000000001
20
-97.499999999999986
30
0
40
2.5000000000000355
210
0
220
0
230
1
100
AcDbArc
50
-90.000000000000966
51
0
0
LINE
5
119
100
AcDbEntity
8
0
100
AcDbLine
10
-117.50000000000006
20
-100.00000000000001
30
0
11
-122.49999999999999
21
-100
31
0
0
ARC
5
120
100
AcDbEntity
8
0
100
AcDbCircle
10
-122.49999999999999
20
-97.499999999999986
30
0
40
2.5000000000000178
210
0
220
0
230
1
100
AcDbArc
50
180
51
270
0
ARC
5
121
100
AcDbEntity
8
0
100
AcDbCircle
10
-82.500000000000014
20
97.499999999999986
30
0
40
2.5000000000000178
210
0
220
0
230
1
100
AcDbArc
50
0
51
90.000000000000981
0
LINE
5
122
100
AcDbEntity
8
0
100
AcDbLine
10
-80
20
95
30
0
11
-80
21
-97.499999999999986
31
0
0
LINE
5
123
100
AcDbEntity
8
0
100
AcDbLine
10
-80
20
95
30
0
11
-80
21
97.499999999999986
31
0
0
LINE
5
124
100
AcDbEntity
8
0
100
AcDbLine
10
-90
20
-97.499999999999986
30
0
11
-90
21
95
31
0
0
LINE
5
125
100
AcDbEntity
8
0
100
AcDbLine
10
-82.500000000000057
20
100.00000000000001
30
0
11
-87.499999999999986
21
100
31
0
0
LINE
5
126
100
AcDbEntity
8
0
100
AcDbLine
10
-90
20
97.499999999999986
30
0
11
-90
21
95
31
0
0
ARC
5
127
100
AcDbEntity
8
0
100
AcDbCircle
10
-87.499999999999986
20
97.499999999999986
30
0
40
2.5000000000000178
210
0
220
-0
230
1
100
AcDbArc
50
90
51
180
0
ARC
5
128
100
AcDbEntity
8
0
100
AcDbCircle
10
-82.500000000000014
20
-97.499999999999986
30
0
40
2.5000000000000355
210
0
220
0
230
1
100
AcDbArc
50
-90.000000000000966
51
0
0
LINE
5
129
100
AcDbEntity
8
0
100
AcDbLine
10
-82.500000000000057
20
-100.00000000000001
30
0
11
-87.499999999999986
21
-100
31
0
0
ARC
5
130
100
AcDbEntity
8
0
100
AcDbCircle
10
-87.499999999999986
20
-97.499999999999986
30
0
40
2.5000000000000178
210
0
220
0
230
1
100
AcDbArc
50
180
51
270
0
ARC
5
131
100
AcDbEntity
8
0
100
AcDbCircle
10
-47.500000000000014
20
97.499999999999986
30
0
40
2.5000000000000178
210
0
220
0
230
1
100
AcDbArc
50
0
51
90.000000000000981
0
LINE
5
132
100
AcDbEntity
8
0
100
AcDbLine
10
-45
20
95
30
0
11
-45
21
-97.499999999999986
31
0
0
LINE
5
133
100
AcDbEntity
8
0
100
AcDbLine
10
-45
20
95
30
0
11
-45
21
97.499999999999986
31
0
0
LINE
5
134
100
AcDbEntity
8
0
100
AcDbLine
10
-55
20
-97.499999999999986
30
0
11
-55
21
95
31
0
0
LINE
5
135
100
AcDbEntity
8
0
100
AcDbLine
10
-47.500000000000057
20
100.00000000000001
30
0
11
-52.499999999999986
21
100
31
0
0
LINE
5
136
100
AcDbEntity
8
0
100
AcDbLine
10
-55
20
97.499999999999986
30
0
11
-55
21
95
31
0
0
ARC
5
137
100
AcDbEntity
8
0
100
AcDbCircle
10
-52.499999999999986
20
97.499999999999986
30
0
40
2.5000000000000178
210
0
220
-0
230
1
100
AcDbArc
50
90
51
180
0
ARC
5
138
100
AcDbEntity
8
0
100
AcDbCircle
10
-47.500000000000014
20
-97.499999999999986
30
0
40
2.5000000000000355
210
0
220
0
230
1
100
AcDbArc
50
-90.000000000000966
51
0
0
LINE
5
139
100
AcDbEntity
8
0
100
AcDbLine
10
-47.500000000000057
20
-100.00000000000001
30
0
11
-52.499999999999986
21
-100
31
0
0
ARC
5
140
100
AcDbEntity
8
0
100
AcDbCircle
10
-52.499999999999986
20
-97.499999999999986
30
0
40
2.5000000000000178
210
0
220
0
230
1
100
AcDbArc
50
180
51
270
0
ARC
5
141
100
AcDbEntity
8
0
100
AcDbCircle
10
-12.500000000000018
20
97.499999999999986
30
0
40
2.5000000000000178
210
0
220
0
230
1
100
AcDbArc
50
0
51
90.00000000000081
0
LINE
5
142
100
AcDbEntity
8
0
100
AcDbLine
10
-10
20
95
30
0
11
-10
21
-97.499999999999986
31
0
0
LINE
5
143
100
AcDbEntity
8
0
100
AcDbLine
10
-10
20
95
30
0
11
-10
21
97.499999999999986
31
0
0
LINE
5
144
100
AcDbEntity
8
0
100
AcDbLine
10
-20
20
-97.499999999999986
30
0
11
-20
21
95
31
0
0
LINE
5
145
100
AcDbEntity
8
0
100
AcDbLine
10
-12.500000000000053
20
100.00000000000001
30
0
11
-17.499999999999982
21
100
31
0
0
LINE
5
146
100
AcDbEntity
8
0
100
AcDbLine
10
-20
20
97.499999999999986
30
0
11
-20
21
95
31
0
0
ARC
5
147
100
AcDbEntity
8
0
100
AcDbCircle
10
-17.499999999999982
20
97.499999999999986
30
0
40
2.5000000000000178
210
0
220
-0
230
1
100
AcDbArc
50
90
51
180
0
ARC
5
148
100
AcDbEntity
8
0
100
AcDbCircle
10
-12.500000000000018
20
-97.499999999999986
30
0
40
2.5000000000000355
210
0
220
0
230
1
100
AcDbArc
50
-90.00000000000081
51
0
0
LINE
5
149
100
AcDbEntity
8
0
100
AcDbLine
10
-12.500000000000053
20
-100.00000000000001
30
0
11
-17.499999999999982
21
-100
31
0
0
ARC
5
150
100
AcDbEntity
8
0
100
AcDbCircle
10
-17.499999999999982
20
-97.499999999999986
30
0
40
2.5000000000000178
210
0
220
0
230
1
100
AcDbArc
50
180
51
270
0
ARC
5
151
100
AcDbEntity
8
0
100
AcDbCircle
10
22.499999999999982
20
97.499999999999986
30
0
40
2.5000000000000178
210
0
220
0
230
1
100
AcDbArc
50
0
51
90.00000000000081
0
LINE
5
152
100
AcDbEntity
8
0
100
AcDbLine
10
25
20
95
30
0
11
25
21
-97.499999999999986
31
0
0
LINE
5
153
100
AcDbEntity
8
0
100
AcDbLine
10
25
20
95
30
0
11
25
21
97.499999999999986
31
0
0
LINE
5
154
100
AcDbEntity
8
0
100
AcDbLine
10
15
20
-97.499999999999986
30
0
11
15
21
95
31
0
0
LINE
5
155
100
AcDbEntity
8
0
100
AcDbLine
10
22.499999999999947
20
100.00000000000001
30
0
11
17.500000000000018
21
100
31
0
0
LINE
5
156
100
AcDbEntity
8
0
100
AcDbLine
10
15
20
97.499999999999986
30
0
11
15
21
95
31
0
0
ARC
5
157
100
AcDbEntity
8
0
100
AcDbCircle
10
17.500000000000018
20
97.499999999999986
30
0
40
2.5000000000000178
210
0
220
-0
230
1
100
AcDbArc
50
90
51
180
0
ARC
5
158
100
AcDbEntity
8
0
100
AcDbCircle
10
22.499999999999982
20
-97.499999999999986
30
0
40
2.5000000000000355
210
0
220
0
230
1
100
AcDbArc
50
-90.00000000000081
51
0
0
LINE
5
159
100
AcDbEntity
8
0
100
AcDbLine
10
22.499999999999947
20
-100.00000000000001
30
0
11
17.500000000000018
21
-100
31
0
0
ARC
5
160
100
AcDbEntity
8
0
100
AcDbCircle
10
17.500000000000018
20
-97.499999999999986
30
0
40
2.5000000000000178
210
0
220
0
230
1
100
AcDbArc
50
180
51
270
0
ARC
5
161
100
AcDbEntity
8
0
100
AcDbCircle
10
57.499999999999986
20
97.499999999999986
30
0
40
2.5000000000000178
210
0
220
0
230
1
100
AcDbArc
50
0
51
90.000000000000981
0
LINE
5
162
100
AcDbEntity
8
0
100
AcDbLine
10
60
20
95
30
0
11
60
21
-97.499999999999986
31
0
0
LINE
5
163
100
AcDbEntity
8
0
100
AcDbLine
10
60
20
95
30
0
11
60
21
97.499999999999986
31
0
0
LINE
5
164
100
AcDbEntity
8
0
100
AcDbLine
10
50
20
-97.499999999999986
30
0
11
50
21
95
31
0
0
LINE
5
165
100
AcDbEntity
8
0
100
AcDbLine
10
57.499999999999943
20
100.00000000000001
30
0
11
52.500000000000014
21
100
31
0
0
LINE
5
166
100
AcDbEntity
8
0
100
AcDbLine
10
50
20
97.499999999999986
30
0
11
50
21
95
31
0
0
ARC
5
167
100
AcDbEntity
8
0
100
AcDbCircle
10
52.500000000000014
20
97.499999999999986
30
0
40
2.5000000000000178
210
0
220
-0
230
1
100
AcDbArc
50
90
51
180
0
ARC
5
168
100
AcDbEntity
8
0
100
AcDbCircle
10
57.499999999999986
20
-97.499999999999986
30
0
40
2.5000000000000355
210
0
220
0
230
1
100
AcDbArc
50
-90.000000000000966
51
0
0
LINE
5
169
100
AcDbEntity
8
0
100
AcDbLine
10
57.499999999999943
20
-100.00000000000001
30
0
11
52.500000000000014
21
-100
31
0
0
ARC
5
170
100
AcDbEntity
8
0
100
AcDbCircle
10
52.500000000000014
20
-97.499999999999986
30
0
40
2.5000000000000178
210
0
220
0
230
1
100
AcDbArc
50
180
51
270
0
ARC
5
171
100
AcDbEntity
8
0
100
AcDbCircle
10
92.499999999999986
20
97.499999999999986
30
0
40
2.5000000000000178
210
0
220
0
230
1
100
AcDbArc
50
0
51
90.000000000000981
0
LINE
5
172
100
AcDbEntity
8
0
100
AcDbLine
10
95
20
95
30
0
11
95
21
-97.499999999999986
31
0
0
LINE
5
173
100
AcDbEntity
8
0
100
AcDbLine
10
95
20
95
30
0
11
95
21
97.499999999999986
31
0
0
LINE
5
174
100
AcDbEntity
8
0
100
AcDbLine
10
85
20
-97.499999999999986
30
0
11
85
21
95
31
0
0
LINE
5
175
100
AcDbEntity
8
0
100
AcDbLine
10
92.499999999999943
20
100.00000000000001
30
0
11
87.500000000000014
21
100
31
0
0
LINE
5
176
100
AcDbEntity
8
0
100
AcDbLine
10
85
20
97.499999999999986
30
0
11
85
21
95
31
0
0
ARC
5
177
100
AcDbEntity
8
0
100
AcDbCircle
10
87.500000000000014
20
97.499999999999986
30
0
40
2.5000000000000178
210
0
220
-0
230
1
100
AcDbArc
50
90
51
180
0
ARC
5
178
100
AcDbEntity
8
0
100
AcDbCircle
10
92.499999999999986
20
-97.499999999999986
30
0
40
2.5000000000000355
210
0
220
0
230
1
100
AcDbArc
50
-90.000000000000966
51
0
0
LINE
5
179
100
AcDbEntity
8
0
100
AcDbLine
10
92.499999999999943
20
-100.00000000000001
30
0
11
87.500000000000014
21
-100
31
0
0
ARC
5
180
100
AcDbEntity
8
0
100
AcDbCircle
10
87.500000000000014
20
-97.499999999999986
30
0
40
2.5000000000000178
210
0
220
0
230
1
100
AcDbArc
50
180
51
270
0
ARC
5
181
100
AcDbEntity
8
0
100
AcDbCircle
10
127.49999999999999
20
97.499999999999986
30
0
40
2.5000000000000178
210
0
220
0
230
1
100
AcDbArc
50
0
51
90.000000000000981
0
LINE
5
182
100
AcDbEntity
8
0
100
AcDbLine
10
130
20
95
30
0
11
130
21
-97.499999999999986
31
0
0
LINE
5
183
100
AcDbEntity
8
0
100
AcDbLine
10
130
20
95
30
0
11
130
21
97.499999999999986
31
0
0
LINE
5
184
100
AcDbEntity
8
0
100
AcDbLine
10
120
20
-97.499999999999986
30
0
11
120
21
95
31
0
0
LINE
5
185
100
AcDbEntity
8
0
100
AcDbLine
10
127.49999999999994
20
100.00000000000001
30
0
11
122.50000000000001
21
100
31
0
0
LINE
5
186
100
AcDbEntity
8
0
100
AcDbLine
10
120
20
97.499999999999986
30
0
11
120
21
95
31
0
0
ARC
5
187
100
AcDbEntity
8
0
100
AcDbCircle
10
122.50000000000001
20
97.499999999999986
30
0
40
2.5000000000000178
210
0
220
-0
230
1
100
AcDbArc
50
90
51
180
0
ARC
5
188
100
AcDbEntity
8
0
100
AcDbCircle
10
127.49999999999999
20
-97.499999999999986
30
0
40
2.5000000000000355
210
0
220
0
230
1
100
AcDbArc
50
-90.000000000000966
51
0
0
LINE
5
189
100
AcDbEntity
8
0
100
AcDbLine
10
127.49999999999994
20
-100.00000000000001
30
0
11
122.50000000000001
21
-100
31
0
0
ARC
5
190
100
AcDbEntity
8
0
100
AcDbCircle
10
122.50000000000001
20
-97.499999999999986
30
0
40
2.5000000000000178
210
0
220
0
230
1
100
AcDbArc
50
180
51
270
0
ARC
5
191
100
AcDbEntity
8
0
100
AcDbCircle
10
162.5
20
97.499999999999986
30
0
40
2.5
210
0
220
0
230
1
100
AcDbArc
50
0
51
90.000000000001307
0
LINE
5
192
100
AcDbEntity
8
0
100
AcDbLine
10
165
20
95
30
0
11
165
21
-97.499999999999986
31
0
0
LINE
5
193
100
AcDbEntity
8
0
100
AcDbLine
10
165
20
95
30
0
11
165
21
97.499999999999986
31
0
0
LINE
5
194
100
AcDbEntity
8
0
100
AcDbLine
10
155
20
-97.499999999999986
30
0
11
155
21
95
31
0
0
LINE
5
195
100
AcDbEntity
8
0
100
AcDbLine
10
162.49999999999994
20
100.00000000000001
30
0
11
157.50000000000003
21
100
31
0
0
LINE
5
196
100
AcDbEntity
8
0
100
AcDbLine
10
155
20
97.499999999999986
30
0
11
155
21
95
31
0
0
ARC
5
197
100
AcDbEntity
8
0
100
AcDbCircle
10
157.50000000000003
20
97.499999999999986
30
0
40
2.5000000000000178
210
0
220
-0
230
1
100
AcDbArc
50
90
51
180
0
ARC
5
198
100
AcDbEntity
8
0
100
AcDbCircle
10
162.5
20
-97.499999999999986
30
0
40
2.5000000000000355
210
0
220
0
230
1
100
AcDbArc
50
-90.000000000001322
51
0
0
LINE
5
199
100
AcDbEntity
8
0
100
AcDbLine
10
162.49999999999994
20
-100.00000000000001
30
0
11
157.50000000000003
21
-100
31
0
0
ARC
5
200
100
AcDbEntity
8
0
100
AcDbCircle
10
157.50000000000003
20
-97.499999999999986
30
0
40
2.5000000000000178
210
0
220
0
230
1
100
AcDbArc
50
180
51
270
0
ENDSEC
0
SECTION
2
OBJECTS
0
DICTIONARY
5
C
100
AcDbDictionary
3
ACAD_GROUP
350
D
3
ACAD_MLINESTYLE
350
17
0
DICTIONARY
5
D
100
AcDbDictionary
0
DICTIONARY
5
1A
330
C
100
AcDbDictionary
0
DICTIONARY
5
17
100
AcDbDictionary
0
ENDSEC
0
EOF
